HIERARCHY
ROOT simHips
{
  OFFSET -173.905 99.72 111.912
  CHANNELS 6 Xposition Yposition Zposition Zrotation Xrotation Yrotation
  JOINT simSpine
  {
    OFFSET -0.000355721 21.3001 -0.016921
    CHANNELS 3 Zrotation Xrotation Yrotation
    JOINT simLeftArm
    {
      OFFSET 13.5181 21.3012 0
      CHANNELS 3 Zrotation Xrotation Yrotation
      JOINT simLeftForeArm
      {
        OFFSET 24.5783 0 0
        CHANNELS 3 Zrotation Xrotation Yrotation
        JOINT simLeftHand
        {
          OFFSET 24.5783 0 0
          CHANNELS 3 Zrotation Xrotation Yrotation
          End Site
          {
            OFFSET 7.32568 1.52588e-05 0.0169305
          }
        }
      }
    }
    JOINT simHead
    {
      OFFSET 0 27.4458 -0.00489235
      CHANNELS 3 Zrotation Xrotation Yrotation
      End Site
      {
        OFFSET 0 0 0
      }
    }
    JOINT simRightArm
    {
      OFFSET -13.5174 21.3012 0
      CHANNELS 3 Zrotation Xrotation Yrotation
      JOINT simRightForeArm
      {
        OFFSET -24.5783 0 0
        CHANNELS 3 Zrotation Xrotation Yrotation
        JOINT simRightHand
        {
          OFFSET -24.5783 0 0
          CHANNELS 3 Zrotation Xrotation Yrotation
          End Site
          {
            OFFSET -7.32568 1.52588e-05 0.0169305
          }
        }
      }
    }
  }
  JOINT simRightUpLeg
  {
    OFFSET -8.44614 -9.41038 0.835684
    CHANNELS 3 Zrotation Xrotation Yrotation
    JOINT simRightLeg
    {
      OFFSET 0 -40.9639 0
      CHANNELS 3 Zrotation Xrotation Yrotation
      JOINT simRightFoot
      {
        OFFSET 0 -40.9639 0
        CHANNELS 3 Zrotation Xrotation Yrotation
        End Site
        {
          OFFSET 0.50614 -9.67405 14.6709
        }
      }
    }
  }
  JOINT simLeftUpLeg
  {
    OFFSET 8.44614 -9.41038 0.835684
    CHANNELS 3 Zrotation Xrotation Yrotation
    JOINT simLeftLeg
    {
      OFFSET 0 -40.9639 0
      CHANNELS 3 Zrotation Xrotation Yrotation
      JOINT simLeftFoot
      {
        OFFSET 0 -40.9639 0
        CHANNELS 3 Zrotation Xrotation Yrotation
        End Site
        {
          OFFSET -0.50614 -9.67405 14.6709
        }
      }
    }
  }
}
MOTION
Frames:	20
Frame Time:	0.0333333
-174.15 99.5585 112.506 -0.0707166 0.419313 -0.252556 0.552993 1.6115 0.247579 7.89465 -13.3777 0.402336 -1.21292 -0.144347 4.95812e-05 -0.513974 1.94153 0.545481 -1.92251 -3.30028 -10.4726 -6.22798 -8.76415 -0.288113 1.82556 -0.0263088 0.00014267 2.44718 -0.942048 0.303174 5.26259 0.185882 0.233858 -0.912396 0.081907 -0.0590195 -3.94012 -1.47793 0.120143 -2.92631 -0.86746 -0.0472814 0.0184295 1.99342 -0.0251263 2.7887 -2.17674 0.328393 
-174.139 99.5584 112.492 -0.0730393 0.391443 -0.24791 0.57271 1.56561 0.295117 7.80839 -13.2752 0.304104 -1.16456 -0.144347 4.95812e-05 -0.473561 2.07147 0.585496 -2.02722 -3.12951 -10.5175 -6.30238 -8.6704 -0.304715 1.82857 -0.0263088 0.00014267 2.47546 -0.976001 0.284205 5.25436 0.237491 0.240551 -0.91246 0.0191062 -0.0590194 -3.90282 -1.46209 0.103855 -2.93896 -0.874284 -0.0235157 0.0375703 2.04142 -0.025127 2.8508 -2.22021 0.263247 
-174.137 99.558 112.473 -0.0575629 0.351885 -0.216497 0.541818 1.58227 0.279045 7.74208 -13.2031 0.199159 -1.17022 -0.144347 4.95812e-05 -0.569065 1.93351 0.455353 -2.07005 -3.07691 -10.5777 -6.36407 -8.65431 -0.287072 1.83705 -0.0263088 0.00014267 2.42154 -0.946685 0.248298 5.2395 0.278786 0.198315 -0.918704 0.000886439 -0.0590194 -3.93194 -1.42737 0.12758 -2.97022 -0.854056 -0.0493729 0.0576085 2.06725 -0.0251274 2.8243 -2.16811 0.300066 
-174.136 99.5586 112.453 -0.0555684 0.314974 -0.185347 0.514563 1.65388 0.18972 7.71229 -13.208 0.160309 -1.19989 -0.144347 4.95812e-05 -0.641995 1.96341 0.400088 -2.04067 -3.18463 -10.5003 -6.40277 -8.71116 -0.220814 1.81769 -0.0263088 0.00014267 2.45483 -0.923063 0.322267 5.22511 0.256353 0.205497 -0.890467 0.091136 -0.0590195 -3.94059 -1.45422 0.0790267 -2.9669 -0.819261 0.206387 0.0552309 2.04685 -0.0251271 2.8119 -2.17902 0.0183092 
-174.134 99.5584 112.428 -0.0563976 0.32525 -0.147454 0.502099 1.66167 0.149055 7.72401 -13.2552 0.0573814 -1.26606 -0.144347 4.95812e-05 -0.639058 2.13786 0.487234 -2.04272 -3.18754 -10.5319 -6.48713 -8.78276 -0.163503 1.83232 -0.0263088 0.00014267 2.44685 -0.980227 0.243282 5.22717 0.274318 0.202453 -0.897887 0.000451048 -0.0590194 -3.90822 -1.39257 0.0522557 -2.96225 -0.830688 0.176057 0.0537395 2.00378 -0.0251265 2.79316 -2.13897 0.00914942 
-174.133 99.5579 112.42 -0.0581034 0.344984 -0.181671 0.471886 1.62173 0.163617 7.74205 -13.2884 0.0078673 -1.26077 -0.143968 4.95812e-05 -0.636168 2.10336 0.497798 -2.0597 -3.19024 -10.6395 -6.57262 -8.69549 -0.139508 1.81408 -0.0263088 0.00014267 2.44781 -0.945981 0.241051 5.22368 0.248196 0.216696 -0.920649 -0.000568952 -0.0590194 -3.9473 -1.35714 0.07618 -2.98351 -0.88557 0.220708 0.0692538 2.05965 -0.0251273 2.80543 -2.13853 0.00201041 
-174.131 99.558 112.4 -0.0601649 0.366724 -0.209977 0.434008 1.65366 0.192317 7.77354 -13.2645 -0.00383113 -1.18695 -0.136459 4.95811e-05 -0.52925 2.0111 0.480484 -2.02173 -3.25212 -10.7816 -6.64629 -8.78421 -0.166061 1.80226 -0.0263088 0.00014267 2.42279 -0.930263 0.264243 5.22847 0.211239 0.254401 -0.91078 -2.65476e-05 -0.0590194 -3.8746 -1.38929 0.0558863 -2.95827 -0.879905 0.199796 0.038595 1.98481 -0.0251262 2.7991 -2.0904 0.045932 
-174.127 99.5581 112.376 -0.0625419 0.399265 -0.237473 0.386801 1.66137 0.212655 7.82797 -13.1672 0.01992 -1.10151 -0.127613 4.95811e-05 -0.455818 2.0273 0.450228 -1.99456 -3.35968 -10.7916 -6.69976 -8.81933 -0.213717 1.79298 -0.0263088 0.00014267 2.39282 -0.93709 0.317578 5.2347 0.127199 0.264715 -0.91874 0.0678829 -0.0590195 -3.95381 -1.34284 0.102272 -2.96787 -0.970794 0.0247317 0.0567567 2.06544 -0.0251274 2.78656 -2.11514 0.244821 
-174.116 99.5582 112.372 -0.0903325 0.452643 -0.296423 0.391861 1.5856 0.229203 7.84357 -12.9692 0.0556425 -1.03791 -0.12108 4.95811e-05 -0.365375 2.11352 0.656058 -1.99063 -3.3586 -10.6938 -6.75084 -8.64807 -0.192403 1.79779 -0.0263088 0.00014267 2.35324 -1.02622 0.294185 5.25329 0.100975 0.315254 -0.918256 0.000181755 -0.0590194 -3.87213 -1.3449 0.116139 -2.92287 -1.03669 0.0775041 0.0219016 2.08341 -0.0251277 2.78453 -2.13127 0.235016 
-174.105 99.5581 112.376 -0.100707 0.528288 -0.346341 0.381327 1.48694 0.223656 7.86071 -12.9992 0.0220473 -1.10541 -0.128088 4.95811e-05 -0.399463 2.04178 0.483275 -2.01664 -3.20746 -10.4307 -6.72961 -8.68736 -0.12912 1.80354 -0.0263088 0.00014267 2.39976 -0.973427 0.291976 5.27037 -0.01864 0.320485 -0.941796 0.0688709 -0.0590195 -3.85745 -1.36719 0.153031 -2.9194 -1.08572 0.189082 0.0449701 2.0208 -0.0251267 2.81742 -2.09322 0.160603 
-174.094 99.5583 112.367 -0.113133 0.595185 -0.382116 0.395745 1.44904 0.222078 7.74954 -13.1026 -0.00551775 -1.13827 -0.131523 4.95811e-05 -0.467055 2.20248 0.523402 -1.94201 -3.07677 -9.70168 -6.64218 -8.74072 -0.15364 1.67456 -0.0263088 0.00014267 2.44929 -0.97865 0.26724 5.27385 -0.0659718 0.350284 -0.939286 0.00085307 -0.0590194 -3.85839 -1.30535 0.183062 -2.91369 -1.17723 0.12932 0.0402836 2.04219 -0.025127 2.77865 -2.06956 0.254855 
-174.072 99.5581 112.366 -0.125429 0.581308 -0.450957 0.431813 1.46442 0.241774 7.57243 -13.1026 0.00749579 -1.16168 -0.134261 4.95811e-05 -0.57768 2.18425 0.47996 -1.80599 -3.03604 -8.70565 -6.58496 -8.75585 -0.187204 1.57152 -0.0263088 0.00014267 2.49718 -0.87694 0.299792 5.27679 -0.0528337 0.357997 -0.943641 0.000284503 -0.0590194 -3.86571 -1.28128 0.242271 -2.92197 -1.18024 0.144992 0.0683049 2.09466 -0.0251279 2.75699 -2.09536 0.303761 
-174.062 99.5608 112.368 -0.128154 0.597547 -0.498825 0.446384 1.39508 0.286225 7.39989 -12.9959 -0.0071236 -1.17261 -0.137642 4.95811e-05 -0.786694 2.07683 0.320471 -1.68548 -2.95639 -7.8066 -6.51497 -8.6282 -0.285208 1.49345 -0.0263088 0.00014267 2.37217 -0.83453 0.243538 5.26904 -0.0708032 0.436408 -0.922806 -0.000461514 -0.0590194 -3.86832 -1.2818 0.18441 -2.92108 -1.1735 0.350749 0.0463648 2.04041 -0.0226874 2.82615 -2.09491 0.146691 
-174.048 99.5627 112.366 -0.128568 0.585699 -0.514553 0.441961 1.44291 0.276662 7.28267 -13.0171 0.0824217 -1.12995 -0.141292 4.95812e-05 -0.686276 2.36111 0.420368 -1.62204 -2.98142 -7.1991 -6.42868 -8.58183 -0.366074 1.46499 -0.0263088 0.00014267 2.45661 -0.891964 0.230864 5.2627 -0.0933342 0.425568 -0.929057 0.0556199 -0.0590195 -3.78816 -1.34023 0.218778 -2.9391 -1.12975 0.109604 0.0562552 1.97694 -0.0123956 2.84994 -2.04549 0.414497 
-174.031 99.5641 112.375 -0.129985 0.568138 -0.536934 0.413297 1.49432 0.251097 7.27745 -13.0653 0.268552 -1.10749 -0.144838 4.95812e-05 -0.708383 2.30579 0.394103 -1.55477 -3.02489 -6.73914 -6.35376 -8.46394 -0.383582 1.56299 -0.0263088 0.00014267 2.58291 -1.04967 0.256969 5.25595 -0.0854718 0.426351 -0.932281 0.0906048 -0.0590195 -3.79292 -1.36425 0.234299 -2.9544 -1.13749 0.16281 0.0562243 2.04251 -0.0108401 2.88787 -2.07576 0.384849 
-174.034 99.5648 112.364 -0.138112 0.520828 -0.50437 0.351593 1.6565 0.185356 7.38626 -13.1706 0.453568 -1.11247 -0.147907 4.95812e-05 -0.647576 2.24825 0.362025 -1.41362 -3.23074 -6.32332 -6.3116 -8.43281 -0.42199 1.73163 -0.0263088 0.00014267 2.58875 -1.10164 0.325875 5.2578 0.0187755 0.471998 -0.911694 -0.028733 -0.0590195 -3.80797 -1.28317 0.154255 -2.93861 -1.09312 0.352889 0.0586527 2.05337 -0.00935255 2.84807 -2.12318 0.167797 
-174.031 99.5647 112.366 -0.15314 0.528019 -0.467488 0.307517 1.67894 0.158928 7.53724 -13.1065 0.590491 -1.13098 -0.150126 4.95812e-05 -0.605892 2.23264 0.421885 -1.31228 -3.24928 -6.0454 -6.31263 -8.45824 -0.541193 1.83183 -0.0263088 0.00014267 2.61374 -1.11291 0.367783 5.27133 -0.0204433 0.436977 -0.913255 0.0392132 -0.0590195 -3.81709 -1.30572 0.17179 -2.92715 -1.10693 0.361192 0.0584683 2.05729 -0.00782626 2.86781 -2.12052 0.126612 
-174.021 99.5643 112.365 -0.152135 0.511064 -0.435698 0.262971 1.69774 0.144266 7.68841 -12.9814 0.703263 -1.14591 -0.151121 4.95812e-05 -0.548971 2.2588 0.418226 -1.26743 -3.22787 -5.72123 -6.32925 -8.46643 -0.684681 1.82343 -0.0263088 0.00014267 2.55381 -1.23331 0.382355 5.27168 -0.020677 0.360444 -0.922304 0.0788781 -0.0590195 -3.80866 -1.33822 0.201748 -2.923 -1.06697 0.355642 0.0281063 2.01055 -0.00629936 2.90936 -2.09495 0.117085 
-174.003 99.5643 112.366 -0.161706 0.514733 -0.433604 0.260191 1.61134 0.166168 7.73971 -12.7523 0.782875 -1.14309 -0.150519 4.95812e-05 -0.497253 2.22894 0.376049 -1.27416 -3.00489 -5.29493 -6.37596 -8.24416 -0.79437 1.75531 -0.0263088 0.00014267 2.59851 -1.1199 0.391 5.27231 -0.00780899 0.409584 -0.942506 0.0559486 -0.0590195 -3.8544 -1.27207 0.168343 -2.93824 -1.09066 0.144071 0.0557804 2.05425 -0.00481074 2.88634 -2.10517 0.302472 
-173.987 99.566 112.361 -0.180844 0.519567 -0.397411 0.252142 1.57298 0.0999893 7.76429 -12.6378 0.806653 -1.18091 -0.147949 4.95812e-05 -0.37274 2.17644 0.474031 -1.17388 -2.86991 -4.73972 -6.37524 -8.21992 -0.7721 1.69326 -0.0263088 0.00014267 2.46557 -1.12241 0.326059 5.28292 -0.0168362 0.39104 -0.930076 0.0556654 -0.0590195 -3.9174 -1.23106 0.156813 -2.93363 -1.10537 0.0735227 0.0736446 2.06591 -0.00339822 2.85719 -2.12481 0.329517 
